<mxfile host="65bd71144e">
    <diagram id="uANaRyVnENU8rbYE1F0S" name="Page-1">
        <mxGraphModel dx="4815" dy="2160" grid="1" gridSize="10" guides="1" tooltips="1" connect="1" arrows="1" fold="1" page="1" pageScale="1" pageWidth="10000" pageHeight="10000" math="0" shadow="0">
            <root>
                <mxCell id="0"/>
                <mxCell id="1" parent="0"/>
                <mxCell id="26" value="" style="shape=mxgraph.mockup.containers.marginRect;rectMarginTop=10;strokeColor=#666666;strokeWidth=6;dashed=0;rounded=1;arcSize=5;recursiveResize=0;shadow=0;glass=0;sketch=0;fontSize=12;opacity=50;fontStyle=1;flipV=0;flipH=0;" parent="1" vertex="1">
                    <mxGeometry x="663" y="971" width="1260" height="919" as="geometry"/>
                </mxCell>
                <mxCell id="27" value="Product Event Message Exchange" style="shape=rect;strokeColor=none;fillColor=#008cff;strokeWidth=1;dashed=0;rounded=1;arcSize=50;fontColor=#ffffff;fontSize=17;spacing=2;spacingTop=-2;align=left;autosize=1;spacingLeft=4;resizeWidth=0;resizeHeight=0;perimeter=none;shadow=0;glass=0;sketch=0;opacity=50;" parent="26" vertex="1">
                    <mxGeometry x="5" y="5" width="275" height="35" as="geometry"/>
                </mxCell>
                <mxCell id="70" value="Distribution Server" style="swimlane;startSize=0;fontColor=#FFFFFF;container=0;verticalAlign=bottom;labelPosition=center;verticalLabelPosition=top;align=center;fontSize=20;" parent="26" vertex="1">
                    <mxGeometry x="75" y="110" width="600" height="590" as="geometry"/>
                </mxCell>
                <mxCell id="72" value="&lt;font color=&quot;#ffffff&quot;&gt;Product&amp;nbsp; Events Consumer&lt;/font&gt;" style="rounded=1;whiteSpace=wrap;html=1;shadow=0;glass=0;sketch=0;fillStyle=solid;strokeColor=#FFFFFF;strokeWidth=4;fontSize=20;fontColor=#000000;fillColor=#6600CC;opacity=50;" parent="70" vertex="1">
                    <mxGeometry x="85" y="50" width="165" height="110" as="geometry"/>
                </mxCell>
                <mxCell id="79" value="&lt;font color=&quot;#ffffff&quot;&gt;Product Event Storage Producer&lt;/font&gt;" style="rounded=1;whiteSpace=wrap;html=1;shadow=0;glass=0;sketch=0;fillStyle=solid;strokeColor=#FFFFFF;strokeWidth=4;fontSize=20;fontColor=#000000;fillColor=#CC6600;opacity=50;" parent="70" vertex="1">
                    <mxGeometry x="85" y="390" width="165" height="110" as="geometry"/>
                </mxCell>
                <mxCell id="81" value="&lt;font color=&quot;#ffffff&quot;&gt;Filter/Process&lt;/font&gt;" style="rounded=1;whiteSpace=wrap;html=1;shadow=0;glass=0;sketch=0;fillStyle=solid;strokeColor=#FFFFFF;strokeWidth=4;fontSize=20;fontColor=#000000;fillColor=#00CCCC;opacity=50;" parent="70" vertex="1">
                    <mxGeometry x="355" y="259" width="165" height="110" as="geometry"/>
                </mxCell>
                <mxCell id="84" value="" style="edgeStyle=elbowEdgeStyle;elbow=horizontal;endArrow=classic;html=1;curved=0;rounded=0;endSize=8;startSize=8;fontSize=20;fontColor=#FFFFFF;exitX=0.5;exitY=1;exitDx=0;exitDy=0;entryX=0;entryY=0.5;entryDx=0;entryDy=0;" parent="70" source="72" target="81" edge="1">
                    <mxGeometry width="50" height="50" relative="1" as="geometry">
                        <mxPoint x="515" y="230" as="sourcePoint"/>
                        <mxPoint x="565" y="180" as="targetPoint"/>
                        <Array as="points">
                            <mxPoint x="168" y="310"/>
                        </Array>
                    </mxGeometry>
                </mxCell>
                <mxCell id="109" value="&lt;font color=&quot;#ffffff&quot;&gt;Event Distribution&lt;/font&gt;" style="rounded=1;whiteSpace=wrap;html=1;shadow=0;glass=0;sketch=0;fillStyle=solid;strokeColor=#FFFFFF;strokeWidth=4;fontSize=20;fontColor=#000000;fillColor=#CC6600;opacity=50;" parent="70" vertex="1">
                    <mxGeometry x="352" y="50" width="165" height="110" as="geometry"/>
                </mxCell>
                <mxCell id="111" value="" style="endArrow=classic;html=1;fontSize=20;fontColor=#000000;entryX=0.5;entryY=1;entryDx=0;entryDy=0;" parent="70" target="109" edge="1">
                    <mxGeometry width="50" height="50" relative="1" as="geometry">
                        <mxPoint x="432" y="259" as="sourcePoint"/>
                        <mxPoint x="482" y="209" as="targetPoint"/>
                    </mxGeometry>
                </mxCell>
                <mxCell id="89" value="Webserver" style="swimlane;startSize=0;rounded=0;shadow=0;glass=0;sketch=0;fillStyle=solid;strokeColor=#FFFFFF;strokeWidth=4;fontSize=20;fontColor=#FFFFFF;fillColor=#FF9999;opacity=50;container=0;labelPosition=center;verticalLabelPosition=top;align=center;verticalAlign=bottom;" parent="26" vertex="1">
                    <mxGeometry x="800" y="110" width="380" height="360" as="geometry"/>
                </mxCell>
                <mxCell id="90" value="&lt;font color=&quot;#ffffff&quot;&gt;Product Events Storage Consumer&lt;/font&gt;" style="rounded=1;whiteSpace=wrap;html=1;shadow=0;glass=0;sketch=0;fillStyle=solid;strokeColor=#FFFFFF;strokeWidth=4;fontSize=20;fontColor=#000000;fillColor=#6600CC;opacity=50;" parent="89" vertex="1">
                    <mxGeometry x="60" y="50" width="165" height="110" as="geometry"/>
                </mxCell>
                <mxCell id="130" value="&lt;font color=&quot;#ffffff&quot;&gt;Fallback API Producer&lt;/font&gt;" style="rounded=1;whiteSpace=wrap;html=1;shadow=0;glass=0;sketch=0;fillStyle=solid;strokeColor=#FFFFFF;strokeWidth=4;fontSize=20;fontColor=#000000;fillColor=#CC6600;opacity=50;" vertex="1" parent="89">
                    <mxGeometry x="67" y="209" width="165" height="110" as="geometry"/>
                </mxCell>
                <mxCell id="96" value="Webapp" style="aspect=fixed;html=1;points=[];align=center;image;fontSize=20;image=img/lib/azure2/general/Dashboard.svg;rounded=0;shadow=0;glass=0;sketch=0;fillStyle=solid;strokeColor=#FFFFFF;strokeWidth=4;fontColor=#FFFFFF;fillColor=#FF9999;opacity=50;labelPosition=center;verticalLabelPosition=top;verticalAlign=bottom;" parent="26" vertex="1">
                    <mxGeometry x="897" y="620" width="226.67" height="160" as="geometry"/>
                </mxCell>
                <mxCell id="98" value="" style="endArrow=classic;startArrow=classic;html=1;fontSize=20;fontColor=#FFFFFF;exitX=1.021;exitY=0.537;exitDx=0;exitDy=0;exitPerimeter=0;entryX=0.921;entryY=1.006;entryDx=0;entryDy=0;entryPerimeter=0;" parent="26" source="96" target="89" edge="1">
                    <mxGeometry width="50" height="50" relative="1" as="geometry">
                        <mxPoint x="840" y="470" as="sourcePoint"/>
                        <mxPoint x="890" y="420" as="targetPoint"/>
                        <Array as="points">
                            <mxPoint x="1150" y="706"/>
                        </Array>
                    </mxGeometry>
                </mxCell>
                <mxCell id="135" value="" style="endArrow=classic;html=1;" edge="1" parent="26" source="96" target="130">
                    <mxGeometry width="50" height="50" relative="1" as="geometry">
                        <mxPoint x="657" y="519" as="sourcePoint"/>
                        <mxPoint x="707" y="469" as="targetPoint"/>
                    </mxGeometry>
                </mxCell>
                <mxCell id="140" value="&lt;font color=&quot;#ffffff&quot;&gt;Analytics&lt;/font&gt;" style="sketch=0;points=[[0,0,0],[0.25,0,0],[0.5,0,0],[0.75,0,0],[1,0,0],[0,1,0],[0.25,1,0],[0.5,1,0],[0.75,1,0],[1,1,0],[0,0.25,0],[0,0.5,0],[0,0.75,0],[1,0.25,0],[1,0.5,0],[1,0.75,0]];outlineConnect=0;fontColor=#232F3E;gradientColor=#945DF2;gradientDirection=north;fillColor=#5A30B5;strokeColor=#ffffff;dashed=0;verticalLabelPosition=bottom;verticalAlign=top;align=center;html=1;fontSize=12;fontStyle=0;aspect=fixed;shape=mxgraph.aws4.resourceIcon;resIcon=mxgraph.aws4.analytics;" vertex="1" parent="26">
                    <mxGeometry x="1087" y="229" width="51" height="51" as="geometry"/>
                </mxCell>
                <mxCell id="92" value="" style="edgeStyle=elbowEdgeStyle;elbow=horizontal;endArrow=classic;html=1;curved=0;rounded=0;endSize=8;startSize=8;fontSize=20;fontColor=#FFFFFF;entryX=0;entryY=0.5;entryDx=0;entryDy=0;entryPerimeter=0;exitX=1;exitY=0.5;exitDx=0;exitDy=0;" parent="26" source="90" target="140" edge="1">
                    <mxGeometry width="50" height="50" relative="1" as="geometry">
                        <mxPoint x="840" y="460" as="sourcePoint"/>
                        <mxPoint x="890" y="410" as="targetPoint"/>
                    </mxGeometry>
                </mxCell>
                <mxCell id="2" value="On-Premise&lt;br&gt;&lt;br&gt;&lt;br&gt;Product Information System" style="sketch=0;outlineConnect=0;gradientColor=none;html=1;whiteSpace=wrap;fontSize=12;fontStyle=0;shape=mxgraph.aws4.group;grIcon=mxgraph.aws4.group_on_premise;strokeColor=#666666;fillColor=#CCFFE6;verticalAlign=top;align=left;spacingLeft=30;dashed=0;gradientDirection=north;fillStyle=solid;fontColor=#000000;" parent="1" vertex="1">
                    <mxGeometry x="273" y="241" width="130" height="130" as="geometry"/>
                </mxCell>
                <mxCell id="68" style="edgeStyle=none;html=1;exitX=0.5;exitY=1;exitDx=0;exitDy=0;exitPerimeter=0;entryX=0.5;entryY=0;entryDx=0;entryDy=0;fontColor=#FFFFFF;" parent="1" source="11" target="54" edge="1">
                    <mxGeometry relative="1" as="geometry"/>
                </mxCell>
                <mxCell id="11" value="Kafka Connector" style="fillColor=#c0f5a9;dashed=0;outlineConnect=0;strokeWidth=2;html=1;align=center;fontSize=12;verticalLabelPosition=top;verticalAlign=bottom;shape=mxgraph.eip.event_driven_consumer;rounded=0;shadow=0;glass=0;sketch=0;strokeColor=#FFFFFF;opacity=50;fontStyle=0;labelPosition=center;" parent="1" vertex="1">
                    <mxGeometry x="703" y="261" width="150" height="90" as="geometry"/>
                </mxCell>
                <mxCell id="19" value="Product Events" style="html=1;shape=mxgraph.sysml.isStream;whiteSpace=wrap;align=center;rounded=0;shadow=0;glass=0;sketch=0;strokeColor=#FFFFFF;strokeWidth=1;fontSize=12;opacity=50;" parent="1" vertex="1">
                    <mxGeometry x="493" y="276" width="120" height="60" as="geometry"/>
                </mxCell>
                <mxCell id="20" value="" style="edgeStyle=elbowEdgeStyle;html=1;elbow=horizontal;startArrow=open;rounded=0;endArrow=none;exitX=0;exitY=0.5;startSize=12;fontSize=12;" parent="1" source="19" edge="1">
                    <mxGeometry relative="1" as="geometry">
                        <mxPoint x="403" y="306" as="targetPoint"/>
                    </mxGeometry>
                </mxCell>
                <mxCell id="21" value="" style="edgeStyle=elbowEdgeStyle;html=1;elbow=vertical;endArrow=open;rounded=0;entryX=0;entryY=0.5;endSize=12;fontSize=12;" parent="1" source="19" edge="1">
                    <mxGeometry relative="1" as="geometry">
                        <mxPoint x="703" y="306" as="targetPoint"/>
                    </mxGeometry>
                </mxCell>
                <mxCell id="51" value="Kafka" style="swimlane;startSize=0;fontColor=#FFFFFF;container=0;fillColor=#6600CC;strokeColor=#FFFFFF;glass=0;rounded=0;shadow=0;fillStyle=solid;strokeWidth=4;opacity=50;fontSize=20;labelPosition=center;verticalLabelPosition=top;align=center;verticalAlign=bottom;" parent="1" vertex="1">
                    <mxGeometry x="653" y="211" width="1010" height="680" as="geometry"/>
                </mxCell>
                <mxCell id="53" value="" style="sketch=0;outlineConnect=0;fontColor=#232F3E;gradientColor=none;strokeColor=#232F3E;fillColor=#ffffff;dashed=0;verticalLabelPosition=bottom;verticalAlign=top;align=center;html=1;fontSize=12;fontStyle=0;aspect=fixed;shape=mxgraph.aws4.resourceIcon;resIcon=mxgraph.aws4.cluster;" parent="51" vertex="1">
                    <mxGeometry x="927" y="39" width="60" height="60" as="geometry"/>
                </mxCell>
                <mxCell id="54" value="Product Event Topic" style="shape=process;whiteSpace=wrap;html=1;backgroundOutline=1;fontColor=#000000;fillColor=#FF9999;strokeColor=#6D1F00;" parent="51" vertex="1">
                    <mxGeometry x="35" y="330" width="180" height="60" as="geometry"/>
                </mxCell>
                <mxCell id="64" value="Product Price Update Topic" style="shape=process;whiteSpace=wrap;html=1;backgroundOutline=1;fontColor=#000000;fillColor=#FF9999;strokeColor=#6D1F00;" parent="51" vertex="1">
                    <mxGeometry x="560" y="130" width="180" height="60" as="geometry"/>
                </mxCell>
                <mxCell id="65" value="Country Topic" style="shape=process;whiteSpace=wrap;html=1;backgroundOutline=1;fontColor=#000000;fillColor=#FF9999;strokeColor=#6D1F00;" parent="51" vertex="1">
                    <mxGeometry x="560" y="240" width="180" height="60" as="geometry"/>
                </mxCell>
                <mxCell id="66" value="Specific Product Discount Update Topic" style="shape=process;whiteSpace=wrap;html=1;backgroundOutline=1;fontColor=#000000;fillColor=#FF9999;strokeColor=#6D1F00;" parent="51" vertex="1">
                    <mxGeometry x="560" y="350" width="180" height="60" as="geometry"/>
                </mxCell>
                <mxCell id="74" value="Product Event Storage&lt;br&gt;Topic" style="shape=process;whiteSpace=wrap;html=1;backgroundOutline=1;fontColor=#000000;fillColor=#FF9999;strokeColor=#6D1F00;" parent="51" vertex="1">
                    <mxGeometry x="260" y="520" width="180" height="60" as="geometry"/>
                </mxCell>
                <mxCell id="87" value="" style="endArrow=classic;html=1;fontSize=20;fontColor=#FFFFFF;" parent="51" edge="1">
                    <mxGeometry width="50" height="50" relative="1" as="geometry">
                        <mxPoint x="520" y="270" as="sourcePoint"/>
                        <mxPoint x="560" y="270" as="targetPoint"/>
                    </mxGeometry>
                </mxCell>
                <mxCell id="88" value="" style="endArrow=classic;html=1;fontSize=20;fontColor=#FFFFFF;" parent="51" edge="1">
                    <mxGeometry width="50" height="50" relative="1" as="geometry">
                        <mxPoint x="520" y="390" as="sourcePoint"/>
                        <mxPoint x="560" y="390" as="targetPoint"/>
                    </mxGeometry>
                </mxCell>
                <mxCell id="107" value="" style="endArrow=none;html=1;fontSize=20;fontColor=#FFFFFF;" parent="51" edge="1">
                    <mxGeometry width="50" height="50" relative="1" as="geometry">
                        <mxPoint x="740" y="270" as="sourcePoint"/>
                        <mxPoint x="920" y="270" as="targetPoint"/>
                    </mxGeometry>
                </mxCell>
                <mxCell id="108" value="" style="endArrow=none;html=1;fontSize=20;fontColor=#FFFFFF;" parent="51" edge="1">
                    <mxGeometry width="50" height="50" relative="1" as="geometry">
                        <mxPoint x="740" y="390" as="sourcePoint"/>
                        <mxPoint x="920" y="390" as="targetPoint"/>
                    </mxGeometry>
                </mxCell>
                <mxCell id="73" style="edgeStyle=none;html=1;exitX=0.5;exitY=1;exitDx=0;exitDy=0;entryX=0;entryY=0.5;entryDx=0;entryDy=0;fontSize=20;fontColor=#FFFFFF;" parent="1" source="54" target="72" edge="1">
                    <mxGeometry relative="1" as="geometry">
                        <Array as="points">
                            <mxPoint x="773" y="1161"/>
                        </Array>
                    </mxGeometry>
                </mxCell>
                <mxCell id="80" style="edgeStyle=none;html=1;exitX=0;exitY=0.5;exitDx=0;exitDy=0;entryX=0;entryY=0.5;entryDx=0;entryDy=0;fontSize=20;fontColor=#FFFFFF;" parent="1" source="79" target="74" edge="1">
                    <mxGeometry relative="1" as="geometry">
                        <Array as="points">
                            <mxPoint x="523" y="1526"/>
                            <mxPoint x="523" y="761"/>
                        </Array>
                    </mxGeometry>
                </mxCell>
                <mxCell id="86" value="" style="edgeStyle=elbowEdgeStyle;elbow=horizontal;endArrow=classic;html=1;curved=0;rounded=0;endSize=8;startSize=8;fontSize=20;fontColor=#FFFFFF;entryX=0;entryY=0.5;entryDx=0;entryDy=0;exitX=0.5;exitY=0;exitDx=0;exitDy=0;" parent="1" source="109" target="64" edge="1">
                    <mxGeometry width="50" height="50" relative="1" as="geometry">
                        <mxPoint x="1173" y="1100" as="sourcePoint"/>
                        <mxPoint x="1303" y="951" as="targetPoint"/>
                        <Array as="points">
                            <mxPoint x="1173" y="821"/>
                            <mxPoint x="1173" y="691"/>
                            <mxPoint x="1173" y="1131"/>
                        </Array>
                    </mxGeometry>
                </mxCell>
                <mxCell id="91" value="Database" style="shape=cylinder3;whiteSpace=wrap;html=1;boundedLbl=1;backgroundOutline=1;size=15;rounded=0;shadow=0;glass=0;sketch=0;fillStyle=solid;strokeColor=#FFFFFF;strokeWidth=4;fontSize=20;fontColor=#FFFFFF;fillColor=#FF9999;opacity=50;labelPosition=center;verticalLabelPosition=top;align=center;verticalAlign=bottom;" parent="1" vertex="1">
                    <mxGeometry x="1973" y="1146" width="60" height="80" as="geometry"/>
                </mxCell>
                <mxCell id="99" value="" style="endArrow=classic;startArrow=classic;html=1;fontSize=20;fontColor=#FFFFFF;entryX=0.5;entryY=1;entryDx=0;entryDy=0;entryPerimeter=0;exitX=1;exitY=0.75;exitDx=0;exitDy=0;" parent="1" source="89" target="91" edge="1">
                    <mxGeometry width="50" height="50" relative="1" as="geometry">
                        <mxPoint x="1503" y="1441" as="sourcePoint"/>
                        <mxPoint x="1553" y="1391" as="targetPoint"/>
                        <Array as="points">
                            <mxPoint x="2003" y="1351"/>
                        </Array>
                    </mxGeometry>
                </mxCell>
                <mxCell id="100" value="Market Based &lt;br&gt;Promotion &lt;br&gt;System for US" style="ellipse;shape=cloud;whiteSpace=wrap;html=1;rounded=0;shadow=0;glass=0;sketch=0;fillStyle=solid;strokeColor=#FFFFFF;strokeWidth=4;fontSize=20;fontColor=#FFFFFF;fillColor=#99CCFF;opacity=50;" parent="1" vertex="1">
                    <mxGeometry x="1823" y="262" width="244.33" height="210" as="geometry"/>
                </mxCell>
                <mxCell id="101" value="&lt;font style=&quot;font-size: 20px;&quot;&gt;Customer Portal for&lt;br&gt;Mobile Application&lt;br&gt;for EU&lt;/font&gt;" style="ellipse;shape=cloud;whiteSpace=wrap;html=1;rounded=0;shadow=0;glass=0;sketch=0;fillStyle=solid;strokeColor=#FFFFFF;strokeWidth=4;fontSize=20;fontColor=#FFFFFF;fillColor=#99CCFF;opacity=50;" parent="1" vertex="1">
                    <mxGeometry x="1833" y="571" width="244.33" height="210" as="geometry"/>
                </mxCell>
                <mxCell id="102" value="" style="edgeStyle=elbowEdgeStyle;elbow=horizontal;endArrow=classic;html=1;curved=0;rounded=0;endSize=8;startSize=8;fontSize=20;fontColor=#FFFFFF;entryX=0.109;entryY=0.516;entryDx=0;entryDy=0;entryPerimeter=0;exitX=1;exitY=0.5;exitDx=0;exitDy=0;" parent="1" source="64" target="100" edge="1">
                    <mxGeometry width="50" height="50" relative="1" as="geometry">
                        <mxPoint x="1493" y="691" as="sourcePoint"/>
                        <mxPoint x="1543" y="641" as="targetPoint"/>
                    </mxGeometry>
                </mxCell>
                <mxCell id="103" value="" style="edgeStyle=elbowEdgeStyle;elbow=horizontal;endArrow=classic;html=1;curved=0;rounded=0;endSize=8;startSize=8;fontSize=20;fontColor=#FFFFFF;entryX=0.12;entryY=0.535;entryDx=0;entryDy=0;entryPerimeter=0;" parent="1" target="101" edge="1">
                    <mxGeometry width="50" height="50" relative="1" as="geometry">
                        <mxPoint x="1583" y="371" as="sourcePoint"/>
                        <mxPoint x="1543" y="641" as="targetPoint"/>
                        <Array as="points">
                            <mxPoint x="1573" y="541"/>
                        </Array>
                    </mxGeometry>
                </mxCell>
                <mxCell id="112" value="" style="edgeStyle=elbowEdgeStyle;elbow=horizontal;endArrow=classic;html=1;curved=0;rounded=0;endSize=8;startSize=8;fontSize=20;fontColor=#000000;exitX=1;exitY=0.5;exitDx=0;exitDy=0;entryX=0;entryY=0.5;entryDx=0;entryDy=0;" parent="1" source="74" target="90" edge="1">
                    <mxGeometry width="50" height="50" relative="1" as="geometry">
                        <mxPoint x="1510" y="1050" as="sourcePoint"/>
                        <mxPoint x="1560" y="1000" as="targetPoint"/>
                        <Array as="points">
                            <mxPoint x="1400" y="950"/>
                        </Array>
                    </mxGeometry>
                </mxCell>
                <mxCell id="114" value="" style="ellipse;shape=cloud;whiteSpace=wrap;html=1;rounded=0;shadow=0;glass=0;sketch=0;fillStyle=solid;strokeColor=#33001A;strokeWidth=4;fontSize=20;fontColor=#FFFFFF;fillColor=#CCFFE6;gradientColor=none;gradientDirection=north;opacity=50;" parent="1" vertex="1">
                    <mxGeometry x="1310" y="91" width="250" height="171" as="geometry"/>
                </mxCell>
                <mxCell id="115" value="" style="ellipse;shape=cloud;whiteSpace=wrap;html=1;rounded=0;shadow=0;glass=0;sketch=0;fillStyle=solid;strokeColor=#33001A;strokeWidth=4;fontSize=20;fontColor=#FFFFFF;fillColor=#CCFFE6;gradientColor=none;gradientDirection=north;opacity=50;" parent="1" vertex="1">
                    <mxGeometry x="1320" y="101" width="250" height="171" as="geometry"/>
                </mxCell>
                <mxCell id="116" value="&lt;font color=&quot;#000000&quot;&gt;Kafka Multi Region&lt;br&gt;Cloud Cluster&lt;/font&gt;" style="ellipse;shape=cloud;whiteSpace=wrap;html=1;rounded=0;shadow=0;glass=0;sketch=0;fillStyle=solid;strokeColor=#33001A;strokeWidth=4;fontSize=20;fontColor=#FFFFFF;fillColor=#CCFFE6;gradientColor=none;gradientDirection=north;opacity=50;" parent="1" vertex="1">
                    <mxGeometry x="1330" y="111" width="250" height="171" as="geometry"/>
                </mxCell>
                <mxCell id="138" value="" style="edgeStyle=elbowEdgeStyle;elbow=horizontal;endArrow=classic;html=1;curved=0;rounded=0;endSize=8;startSize=8;entryX=0;entryY=0.5;entryDx=0;entryDy=0;exitX=0;exitY=0.25;exitDx=0;exitDy=0;" edge="1" parent="1" source="130" target="54">
                    <mxGeometry width="50" height="50" relative="1" as="geometry">
                        <mxPoint x="1520" y="1320" as="sourcePoint"/>
                        <mxPoint x="1300" y="870" as="targetPoint"/>
                        <Array as="points">
                            <mxPoint x="400" y="1320"/>
                            <mxPoint x="400" y="1000"/>
                            <mxPoint x="420" y="1310"/>
                            <mxPoint x="580" y="1730"/>
                            <mxPoint x="460" y="880"/>
                            <mxPoint x="940" y="1900"/>
                            <mxPoint x="720" y="2140"/>
                            <mxPoint x="380" y="1860"/>
                            <mxPoint x="390" y="940"/>
                        </Array>
                    </mxGeometry>
                </mxCell>
                <mxCell id="141" value="" style="edgeStyle=elbowEdgeStyle;elbow=horizontal;endArrow=classic;html=1;curved=0;rounded=0;endSize=8;startSize=8;fontSize=20;fontColor=#FFFFFF;entryX=0;entryY=0;entryDx=0;entryDy=52.5;entryPerimeter=0;exitX=1;exitY=0.5;exitDx=0;exitDy=0;startArrow=none;" edge="1" parent="1" source="140" target="91">
                    <mxGeometry width="50" height="50" relative="1" as="geometry">
                        <mxPoint x="1780" y="1230" as="sourcePoint"/>
                        <mxPoint x="2065" y="1230" as="targetPoint"/>
                    </mxGeometry>
                </mxCell>
                <mxCell id="144" value="Product Event Topic" style="shape=process;whiteSpace=wrap;html=1;backgroundOutline=1;fontColor=#000000;fillColor=#FF9999;strokeColor=#6D1F00;" vertex="1" parent="1">
                    <mxGeometry x="2760" y="1040" width="180" height="60" as="geometry"/>
                </mxCell>
                <mxCell id="145" value="&lt;font color=&quot;#ffffff&quot;&gt;Product&amp;nbsp; Events Consumer&lt;/font&gt;" style="rounded=1;whiteSpace=wrap;html=1;shadow=0;glass=0;sketch=0;fillStyle=solid;strokeColor=#FFFFFF;strokeWidth=4;fontSize=20;fontColor=#000000;fillColor=#6600CC;opacity=50;" vertex="1" parent="1">
                    <mxGeometry x="3120" y="1017" width="165" height="110" as="geometry"/>
                </mxCell>
                <mxCell id="146" value="Product Price Update Topic" style="shape=process;whiteSpace=wrap;html=1;backgroundOutline=1;fontColor=#000000;fillColor=#FF9999;strokeColor=#6D1F00;" vertex="1" parent="1">
                    <mxGeometry x="3860" y="630" width="180" height="60" as="geometry"/>
                </mxCell>
                <mxCell id="147" value="Country Topic" style="shape=process;whiteSpace=wrap;html=1;backgroundOutline=1;fontColor=#000000;fillColor=#FF9999;strokeColor=#6D1F00;" vertex="1" parent="1">
                    <mxGeometry x="3860" y="806" width="180" height="60" as="geometry"/>
                </mxCell>
                <mxCell id="148" value="Specific Product Discount Update Topic" style="shape=process;whiteSpace=wrap;html=1;backgroundOutline=1;fontColor=#000000;fillColor=#FF9999;strokeColor=#6D1F00;" vertex="1" parent="1">
                    <mxGeometry x="3860" y="980" width="180" height="60" as="geometry"/>
                </mxCell>
                <mxCell id="149" value="&lt;font color=&quot;#ffffff&quot;&gt;Event Distribution&lt;/font&gt;" style="rounded=1;whiteSpace=wrap;html=1;shadow=0;glass=0;sketch=0;fillStyle=solid;strokeColor=#FFFFFF;strokeWidth=4;fontSize=20;fontColor=#000000;fillColor=#CC6600;opacity=50;" vertex="1" parent="1">
                    <mxGeometry x="3480" y="781" width="165" height="110" as="geometry"/>
                </mxCell>
                <mxCell id="153" value="&lt;span style=&quot;color: rgb(255, 255, 255);&quot;&gt;Product Event Storage Producer&lt;/span&gt;" style="rounded=1;whiteSpace=wrap;html=1;shadow=0;glass=0;sketch=0;fillStyle=solid;strokeColor=#FFFFFF;strokeWidth=4;fontSize=20;fontColor=#000000;fillColor=#CC6600;opacity=50;" vertex="1" parent="1">
                    <mxGeometry x="3480" y="1250" width="165" height="110" as="geometry"/>
                </mxCell>
                <mxCell id="154" value="Product Event Storage&lt;br&gt;Topic" style="shape=process;whiteSpace=wrap;html=1;backgroundOutline=1;fontColor=#000000;fillColor=#FF9999;strokeColor=#6D1F00;" vertex="1" parent="1">
                    <mxGeometry x="3860" y="1284" width="180" height="60" as="geometry"/>
                </mxCell>
                <mxCell id="155" value="&lt;span style=&quot;color: rgb(255, 255, 255);&quot;&gt;Product Events Storage Consumer&lt;/span&gt;" style="rounded=1;whiteSpace=wrap;html=1;shadow=0;glass=0;sketch=0;fillStyle=solid;strokeColor=#FFFFFF;strokeWidth=4;fontSize=20;fontColor=#000000;fillColor=#6600CC;opacity=50;" vertex="1" parent="1">
                    <mxGeometry x="4280" y="1260" width="165" height="110" as="geometry"/>
                </mxCell>
                <mxCell id="156" value="&lt;font color=&quot;#ffffff&quot;&gt;Fallback API Producer&lt;/font&gt;" style="rounded=1;whiteSpace=wrap;html=1;shadow=0;glass=0;sketch=0;fillStyle=solid;strokeColor=#FFFFFF;strokeWidth=4;fontSize=20;fontColor=#000000;fillColor=#CC6600;opacity=50;" vertex="1" parent="1">
                    <mxGeometry x="2450" y="1215" width="165" height="110" as="geometry"/>
                </mxCell>
                <mxCell id="157" value="On-Premise&lt;br&gt;&lt;br&gt;&lt;br&gt;Product Information System" style="sketch=0;outlineConnect=0;gradientColor=none;html=1;whiteSpace=wrap;fontSize=12;fontStyle=0;shape=mxgraph.aws4.group;grIcon=mxgraph.aws4.group_on_premise;strokeColor=#666666;fillColor=#CCFFE6;verticalAlign=top;align=left;spacingLeft=30;dashed=0;gradientDirection=north;fillStyle=solid;fontColor=#000000;" vertex="1" parent="1">
                    <mxGeometry x="2467.5" y="850" width="130" height="130" as="geometry"/>
                </mxCell>
                <mxCell id="160" value="" style="endArrow=classic;html=1;fontColor=#FFFFFF;exitX=1;exitY=0.5;exitDx=0;exitDy=0;entryX=0;entryY=0.5;entryDx=0;entryDy=0;" edge="1" parent="1" source="144" target="145">
                    <mxGeometry width="50" height="50" relative="1" as="geometry">
                        <mxPoint x="3160" y="1170" as="sourcePoint"/>
                        <mxPoint x="3210" y="1120" as="targetPoint"/>
                    </mxGeometry>
                </mxCell>
                <mxCell id="161" value="" style="endArrow=classic;html=1;fontColor=#FFFFFF;entryX=0;entryY=0.5;entryDx=0;entryDy=0;" edge="1" parent="1" target="149">
                    <mxGeometry width="50" height="50" relative="1" as="geometry">
                        <mxPoint x="3400" y="1080" as="sourcePoint"/>
                        <mxPoint x="3350" y="950" as="targetPoint"/>
                        <Array as="points">
                            <mxPoint x="3400" y="836"/>
                        </Array>
                    </mxGeometry>
                </mxCell>
                <mxCell id="162" value="" style="endArrow=classic;html=1;fontColor=#FFFFFF;entryX=0;entryY=0.5;entryDx=0;entryDy=0;" edge="1" parent="1" target="153">
                    <mxGeometry width="50" height="50" relative="1" as="geometry">
                        <mxPoint x="3400" y="1080" as="sourcePoint"/>
                        <mxPoint x="3480" y="1080" as="targetPoint"/>
                        <Array as="points">
                            <mxPoint x="3400" y="1305"/>
                        </Array>
                    </mxGeometry>
                </mxCell>
                <mxCell id="163" value="" style="endArrow=classic;html=1;fontColor=#FFFFFF;entryX=0;entryY=0.5;entryDx=0;entryDy=0;" edge="1" parent="1" target="146">
                    <mxGeometry width="50" height="50" relative="1" as="geometry">
                        <mxPoint x="3760" y="836" as="sourcePoint"/>
                        <mxPoint x="3695" y="731" as="targetPoint"/>
                        <Array as="points">
                            <mxPoint x="3760" y="660"/>
                        </Array>
                    </mxGeometry>
                </mxCell>
                <mxCell id="166" value="" style="endArrow=none;html=1;fontColor=#FFFFFF;" edge="1" parent="1">
                    <mxGeometry width="50" height="50" relative="1" as="geometry">
                        <mxPoint x="2600" y="920" as="sourcePoint"/>
                        <mxPoint x="2680" y="1070" as="targetPoint"/>
                        <Array as="points">
                            <mxPoint x="2680" y="920"/>
                        </Array>
                    </mxGeometry>
                </mxCell>
                <mxCell id="167" value="" style="endArrow=none;html=1;fontColor=#FFFFFF;exitX=1;exitY=0.5;exitDx=0;exitDy=0;" edge="1" parent="1" source="156">
                    <mxGeometry width="50" height="50" relative="1" as="geometry">
                        <mxPoint x="2750" y="1260" as="sourcePoint"/>
                        <mxPoint x="2680" y="1070" as="targetPoint"/>
                        <Array as="points">
                            <mxPoint x="2680" y="1270"/>
                        </Array>
                    </mxGeometry>
                </mxCell>
                <mxCell id="168" value="" style="endArrow=classic;html=1;fontColor=#FFFFFF;entryX=0;entryY=0.5;entryDx=0;entryDy=0;" edge="1" parent="1" target="144">
                    <mxGeometry width="50" height="50" relative="1" as="geometry">
                        <mxPoint x="2680" y="1070" as="sourcePoint"/>
                        <mxPoint x="2900" y="1060" as="targetPoint"/>
                    </mxGeometry>
                </mxCell>
                <mxCell id="169" value="" style="endArrow=classic;html=1;fontColor=#FFFFFF;exitX=1;exitY=0.5;exitDx=0;exitDy=0;" edge="1" parent="1">
                    <mxGeometry width="50" height="50" relative="1" as="geometry">
                        <mxPoint x="3285" y="1080" as="sourcePoint"/>
                        <mxPoint x="3400" y="1082" as="targetPoint"/>
                    </mxGeometry>
                </mxCell>
                <mxCell id="170" value="" style="endArrow=classic;html=1;fontColor=#FFFFFF;entryX=0;entryY=0.5;entryDx=0;entryDy=0;" edge="1" parent="1" target="147">
                    <mxGeometry width="50" height="50" relative="1" as="geometry">
                        <mxPoint x="3760" y="836" as="sourcePoint"/>
                        <mxPoint x="3870" y="670" as="targetPoint"/>
                    </mxGeometry>
                </mxCell>
                <mxCell id="171" value="" style="endArrow=classic;html=1;fontColor=#FFFFFF;entryX=0;entryY=0.5;entryDx=0;entryDy=0;" edge="1" parent="1" target="148">
                    <mxGeometry width="50" height="50" relative="1" as="geometry">
                        <mxPoint x="3760" y="830" as="sourcePoint"/>
                        <mxPoint x="3860" y="1010" as="targetPoint"/>
                        <Array as="points">
                            <mxPoint x="3760" y="1010"/>
                        </Array>
                    </mxGeometry>
                </mxCell>
                <mxCell id="173" value="" style="endArrow=none;html=1;fontColor=#FFFFFF;exitX=1;exitY=0.5;exitDx=0;exitDy=0;" edge="1" parent="1" source="149">
                    <mxGeometry width="50" height="50" relative="1" as="geometry">
                        <mxPoint x="3820" y="950" as="sourcePoint"/>
                        <mxPoint x="3760" y="836" as="targetPoint"/>
                    </mxGeometry>
                </mxCell>
                <mxCell id="174" value="" style="endArrow=classic;html=1;fontColor=#FFFFFF;" edge="1" parent="1">
                    <mxGeometry width="50" height="50" relative="1" as="geometry">
                        <mxPoint x="3645" y="1313.8899999999999" as="sourcePoint"/>
                        <mxPoint x="3860" y="1314" as="targetPoint"/>
                    </mxGeometry>
                </mxCell>
                <mxCell id="175" value="" style="endArrow=classic;html=1;fontColor=#FFFFFF;entryX=0;entryY=0.5;entryDx=0;entryDy=0;" edge="1" parent="1" target="155">
                    <mxGeometry width="50" height="50" relative="1" as="geometry">
                        <mxPoint x="4040" y="1313.8899999999999" as="sourcePoint"/>
                        <mxPoint x="4255" y="1314" as="targetPoint"/>
                    </mxGeometry>
                </mxCell>
                <mxCell id="176" value="&lt;font style=&quot;font-size: 33px;&quot;&gt;Events Flow&lt;/font&gt;" style="text;strokeColor=none;fillColor=none;html=1;fontSize=24;fontStyle=1;verticalAlign=middle;align=center;fontColor=#FFFFFF;" vertex="1" parent="1">
                    <mxGeometry x="3190" y="1580" width="510" height="110" as="geometry"/>
                </mxCell>
                <mxCell id="178" value="&lt;font style=&quot;font-size: 33px;&quot;&gt;System Design&lt;/font&gt;" style="text;strokeColor=none;fillColor=none;html=1;fontSize=24;fontStyle=1;verticalAlign=middle;align=center;fontColor=#FFFFFF;" vertex="1" parent="1">
                    <mxGeometry x="830" y="2110" width="510" height="110" as="geometry"/>
                </mxCell>
            </root>
        </mxGraphModel>
    </diagram>
</mxfile>